<svg width="253" height="253" viewBox="0 0 253 253" fill="none" xmlns="http://www.w3.org/2000/svg">
<path d="M179.208 105.417H200.292C221.375 105.417 231.917 94.875 231.917 73.7917V52.7084C231.917 31.625 221.375 21.0834 200.292 21.0834H179.208C158.125 21.0834 147.583 31.625 147.583 52.7084V73.7917C147.583 94.875 158.125 105.417 179.208 105.417Z" stroke="#141522" stroke-width="15.8125" stroke-miterlimit="10" stroke-linecap="round" stroke-linejoin="round"/>
<path d="M52.7083 231.917H73.7916C94.875 231.917 105.417 221.375 105.417 200.292V179.208C105.417 158.125 94.875 147.583 73.7916 147.583H52.7083C31.625 147.583 21.0833 158.125 21.0833 179.208V200.292C21.0833 221.375 31.625 231.917 52.7083 231.917Z" stroke="#141522" stroke-width="15.8125" stroke-miterlimit="10" stroke-linecap="round" stroke-linejoin="round"/>
<path d="M63.25 105.417C86.538 105.417 105.417 86.538 105.417 63.25C105.417 39.962 86.538 21.0834 63.25 21.0834C39.962 21.0834 21.0833 39.962 21.0833 63.25C21.0833 86.538 39.962 105.417 63.25 105.417Z" stroke="#141522" stroke-width="15.8125" stroke-miterlimit="10" stroke-linecap="round" stroke-linejoin="round"/>
<path d="M189.75 231.917C213.038 231.917 231.917 213.038 231.917 189.75C231.917 166.462 213.038 147.583 189.75 147.583C166.462 147.583 147.583 166.462 147.583 189.75C147.583 213.038 166.462 231.917 189.75 231.917Z" stroke="#141522" stroke-width="15.8125" stroke-miterlimit="10" stroke-linecap="round" stroke-linejoin="round"/>
</svg>
