<svg width="56" height="56" viewBox="0 0 56 56" fill="none" xmlns="http://www.w3.org/2000/svg">
<path d="M49.1866 20.02V35.98C49.1866 38.5933 47.7866 41.0201 45.5233 42.3501L31.6633 50.3534C29.3999 51.66 26.5999 51.66 24.3133 50.3534L10.4533 42.3501C8.18992 41.0434 6.78992 38.6166 6.78992 35.98V20.02C6.78992 17.4067 8.18992 14.9799 10.4533 13.6499L24.3133 5.64663C26.5766 4.33996 29.3766 4.33996 31.6633 5.64663L45.5233 13.6499C47.7866 14.9799 49.1866 17.3834 49.1866 20.02Z" stroke="#8E92BC" stroke-width="3.5" stroke-linecap="round" stroke-linejoin="round"/>
<path d="M28 25.6669C31.0026 25.6669 33.4367 23.2327 33.4367 20.2301C33.4367 17.2276 31.0026 14.7936 28 14.7936C24.9974 14.7936 22.5634 17.2276 22.5634 20.2301C22.5634 23.2327 24.9974 25.6669 28 25.6669Z" stroke="#8E92BC" stroke-width="3.5" stroke-linecap="round" stroke-linejoin="round"/>
<path d="M37.3333 38.8735C37.3333 34.6735 33.1566 31.267 28 31.267C22.8433 31.267 18.6666 34.6735 18.6666 38.8735" stroke="#8E92BC" stroke-width="3.5" stroke-linecap="round" stroke-linejoin="round"/>
</svg>
